<svg width="32" height="32" viewBox="0 0 32 32" fill="none" xmlns="http://www.w3.org/2000/svg">
<path d="M31.9875 25.575L28.9875 22.575V7.3875V7.3875V7.3875H22.9125L20.175 4.3875H13.8L12.375 5.9625L10.2375 3.825L12.4875 1.3875H21.4875L24.2625 4.3875H28.9875C29.8125 4.3875 30.5188 4.68125 31.1063 5.26875C31.6938 5.85625 31.9875 6.5625 31.9875 7.3875V25.575V25.575M4.9875 28.3875C4.1625 28.3875 3.45625 28.0938 2.86875 27.5063C2.28125 26.9188 1.9875 26.2125 1.9875 25.3875V7.3875C1.9875 6.5625 2.28125 5.85625 2.86875 5.26875C3.45625 4.68125 4.1625 4.3875 4.9875 4.3875H6.525L9.525 7.3875H4.9875V7.3875V7.3875V25.3875V25.3875V25.3875H27.525L30.525 28.3875H4.9875V28.3875M22.4625 20.325C21.8375 21.175 21.0562 21.8562 20.1187 22.3687C19.1812 22.8812 18.1375 23.1375 16.9875 23.1375C15.1125 23.1375 13.5188 22.4813 12.2063 21.1688C10.8938 19.8563 10.2375 18.2625 10.2375 16.3875C10.2375 15.2375 10.4938 14.1938 11.0063 13.2563C11.5188 12.3188 12.2 11.5375 13.05 10.9125L15.225 13.0875C14.625 13.4125 14.1438 13.8625 13.7812 14.4375C13.4187 15.0125 13.2375 15.6625 13.2375 16.3875C13.2375 17.4375 13.6 18.325 14.325 19.05C15.05 19.775 15.9375 20.1375 16.9875 20.1375C17.7125 20.1375 18.3625 19.9563 18.9375 19.5938C19.5125 19.2312 19.9625 18.75 20.2875 18.15L22.4625 20.325V20.325M21.7875 11.5875C22.4125 12.1875 22.8938 12.9 23.2313 13.725C23.5688 14.55 23.7375 15.4375 23.7375 16.3875C23.7375 16.5375 23.7375 16.6875 23.7375 16.8375C23.7375 16.9875 23.725 17.1375 23.7 17.2875L16.0875 9.675C16.2375 9.65 16.3875 9.6375 16.5375 9.6375C16.6875 9.6375 16.8375 9.6375 16.9875 9.6375C17.9375 9.6375 18.825 9.80625 19.65 10.1438C20.475 10.4813 21.1875 10.9625 21.7875 11.5875V11.5875M29.7 31.8375L0 2.1375L2.1375 0L31.8375 29.7L29.7 31.8375V31.8375M14.25 16.3875V16.3875V16.3875V16.3875V16.3875V16.3875V16.3875V16.3875V16.3875V16.3875M20.6625 14.25V14.25V14.25V14.25V14.25V14.25V14.25V14.25V14.25V14.25" fill="white" fill-opacity="0.65"/>
</svg>
